<svg width="331" height="400" viewBox="0 0 331 400" fill="none" xmlns="http://www.w3.org/2000/svg">
<rect width="331" height="400" fill="#212121"/>
<rect x="38" y="304" width="253" height="65" fill="#FFFDF0"/>
<rect x="38.5" y="25.5" width="73" height="344" fill="#BDE3FF" stroke="black"/>
<ellipse cx="165" cy="151" rx="98" ry="99" fill="#BDE3FF"/>
<mask id="path-5-inside-1_52_4103" fill="white">
<path fill-rule="evenodd" clip-rule="evenodd" d="M164.5 278C234.364 278 291 221.364 291 151.5C291 81.636 234.364 25 164.5 25C94.636 25 38 81.636 38 151.5C38 221.364 94.636 278 164.5 278ZM165.123 220.67C203.669 220.67 234.916 189.423 234.916 150.877C234.916 112.331 203.669 81.0837 165.123 81.0837C126.578 81.0837 95.3301 112.331 95.3301 150.877C95.3301 189.423 126.578 220.67 165.123 220.67Z"/>
</mask>
<path fill-rule="evenodd" clip-rule="evenodd" d="M164.5 278C234.364 278 291 221.364 291 151.5C291 81.636 234.364 25 164.5 25C94.636 25 38 81.636 38 151.5C38 221.364 94.636 278 164.5 278ZM165.123 220.67C203.669 220.67 234.916 189.423 234.916 150.877C234.916 112.331 203.669 81.0837 165.123 81.0837C126.578 81.0837 95.3301 112.331 95.3301 150.877C95.3301 189.423 126.578 220.67 165.123 220.67Z" fill="#FFFDF0"/>
<path d="M290 151.5C290 220.812 233.812 277 164.5 277V279C234.916 279 292 221.916 292 151.5H290ZM164.5 26C233.812 26 290 82.1883 290 151.5H292C292 81.0837 234.916 24 164.5 24V26ZM39 151.5C39 82.1883 95.1883 26 164.5 26V24C94.0837 24 37 81.0837 37 151.5H39ZM164.5 277C95.1883 277 39 220.812 39 151.5H37C37 221.916 94.0837 279 164.5 279V277ZM233.916 150.877C233.916 188.87 203.117 219.67 165.123 219.67V221.67C204.221 221.67 235.916 189.975 235.916 150.877H233.916ZM165.123 82.0837C203.117 82.0837 233.916 112.883 233.916 150.877H235.916C235.916 111.779 204.221 80.0837 165.123 80.0837V82.0837ZM96.3301 150.877C96.3301 112.883 127.13 82.0837 165.123 82.0837V80.0837C126.025 80.0837 94.3301 111.779 94.3301 150.877H96.3301ZM165.123 219.67C127.13 219.67 96.3301 188.87 96.3301 150.877H94.3301C94.3301 189.975 126.025 221.67 165.123 221.67V219.67Z" fill="black" mask="url(#path-5-inside-1_52_4103)"/>
<rect x="93.5" y="116.5" width="38" height="94" fill="#FFFDF0" stroke="black"/>
</svg>
